# xmcd
#
# Track frame offsets: 
#        150
#        18582
#        36777
#        56464
#        70150
#        90062
#        114457
#        134055
#        155800
#        175207
#
# Disc length: 2667 seconds
#
# Revision: 3
# Processed by: cddbd v1.5.2PL0 Copyright (c) Steve Scherf et al.
# Submitted via: ExactAudioCopy v0.99pb4
#
DISCID=810a690a
DTITLE=John McVey - Circle Of Friends
DYEAR=1997
DGENRE=Folk/Rock
TTITLE0=Takes You By Surprise
TTITLE1=I Want To Hold Your Hand
TTITLE2=Mistress
TTITLE3=Who Do I Write To
TTITLE4=Son Of The Night
TTITLE5=One Way Train
TTITLE6=Goobye Is Still Goobye
TTITLE7=I Still Haven't Found What I'm Looking For
TTITLE8=You Have To Do
TTITLE9=Circle Of Friends
EXTD=
EXTT0=
EXTT1=
EXTT2=
EXTT3=
EXTT4=
EXTT5=
EXTT6=
EXTT7=
EXTT8=
EXTT9=
PLAYORDER=
